<svg width="370" height="376" viewBox="0 0 370 376" fill="none" xmlns="http://www.w3.org/2000/svg">
<path d="M5.07213 318.453C19.2161 352.968 42.2781 360.152 58.4925 352.968C89.8506 339.074 171.308 323.551 254.967 360.04C365.77 408.369 389.345 335.453 353.983 261.698C318.62 187.942 306.634 113.355 347.4 72.2615C388.166 31.1682 334.82 -33.1165 240.082 33.7994C178.858 77.0429 133.927 67.4138 109.8 55.1891C87.06 43.6677 61.7709 31.6227 38.0773 41.0274C9.32781 52.4396 -2.00039 77.1818 41.7407 132.456C103.726 210.784 -26.6336 241.089 5.07213 318.453Z" fill="#EBEEFF"/>
<path d="M62.6619 150.319H282.786V319.608C282.786 319.953 282.649 320.283 282.405 320.527C282.161 320.771 281.831 320.908 281.486 320.908H63.9619C63.6171 320.908 63.2864 320.771 63.0426 320.527C62.7988 320.283 62.6619 319.953 62.6619 319.608V150.319Z" fill="#C2CCFF"/>
<path d="M227.564 83.9794H125.211L62.6619 150.319H282.786L227.564 83.9794Z" fill="#418DF9"/>
<path d="M83.5113 57.4432L125.211 83.9794L62.6617 150.319L15.2759 114.306L83.5113 57.4432Z" fill="#699CFF"/>
<path d="M269.263 57.4432L227.564 83.9794L282.786 150.319L337.498 114.306L269.263 57.4432Z" fill="#699CFF"/>
<path d="M152.101 58.8001C153.278 58.2421 154.194 57.251 154.657 56.0338C155.12 54.8166 155.094 53.4676 154.586 52.2686L135.827 8.03536C135.562 7.40882 135.172 6.84247 134.682 6.37038C134.192 5.89829 133.611 5.5302 132.975 5.28825C132.339 5.0463 131.66 4.93549 130.98 4.96246C130.3 4.98944 129.633 5.15366 129.018 5.44524L125.404 7.1589C124.789 7.45047 124.239 7.86337 123.788 8.37279C123.337 8.8822 122.993 9.47761 122.778 10.1232C122.563 10.7688 122.48 11.4513 122.535 12.1296C122.591 12.8078 122.783 13.468 123.099 14.0702L145.472 56.5896C146.078 57.7421 147.107 58.6156 148.342 59.0276C149.578 59.4395 150.925 59.358 152.101 58.8001Z" fill="#418DF9"/>
<path d="M175.62 54.5118C176.471 54.4512 177.267 54.0638 177.839 53.4306C178.412 52.7974 178.718 51.9673 178.693 51.1139L177.767 19.6237C177.753 19.1777 177.65 18.7389 177.463 18.3337C177.276 17.9286 177.009 17.5654 176.678 17.2661C176.347 16.9668 175.959 16.7375 175.537 16.592C175.115 16.4465 174.668 16.3878 174.223 16.4195L171.607 16.6059C171.162 16.6376 170.728 16.7589 170.331 16.9625C169.934 17.1662 169.583 17.4479 169.297 17.7909C169.012 18.1339 168.799 18.531 168.671 18.9584C168.543 19.3858 168.503 19.8346 168.553 20.2779L172.096 51.5819C172.192 52.4305 172.612 53.2093 173.269 53.7553C173.926 54.3014 174.768 54.5724 175.62 54.5118Z" fill="#418DF9"/>
<path d="M193.776 66.1527C196.118 67.5071 199.407 66.2643 201.231 63.3349L233.618 11.3211C235.552 8.21382 235.094 4.42666 232.609 2.99016L229.146 0.988163C226.662 -0.448597 223.151 1.04328 221.423 4.27014L192.499 58.2857C190.87 61.3279 191.433 64.7981 193.776 66.1527Z" fill="#418DF9"/>
</svg>
